<?xml version="1.0" standalone="no"?>
<!DOCTYPE svg PUBLIC "-//W3C//DTD SVG 20010904//EN"
 "http://www.w3.org/TR/2001/REC-SVG-20010904/DTD/svg10.dtd">
<svg version="1.0" xmlns="http://www.w3.org/2000/svg"
 width="225.000000pt" height="225.000000pt" viewBox="0 0 225.000000 225.000000"
 preserveAspectRatio="xMidYMid meet">

<g transform="translate(0.000000,225.000000) scale(0.100000,-0.100000)"
fill="#000000" stroke="none">
<path d="M0 1125 l0 -1125 1125 0 1125 0 0 1125 0 1125 -1125 0 -1125 0 0
-1125z m901 329 c152 -45 262 -147 315 -292 71 -197 137 -268 268 -293 99 -18
266 22 328 78 10 9 21 14 23 11 13 -13 -99 -119 -153 -145 -50 -24 -69 -27
-157 -28 -115 0 -163 17 -235 81 -61 56 -98 114 -152 243 -57 137 -102 206
-163 250 -63 45 -116 61 -205 61 -69 0 -86 -4 -142 -33 -106 -54 -154 -149
-146 -282 7 -109 58 -185 154 -234 85 -42 225 -47 318 -12 55 22 10 -14 -57
-45 -56 -26 -72 -29 -167 -29 -92 0 -112 3 -160 26 -142 67 -220 198 -207 346
14 144 100 247 245 294 74 23 219 25 293 3z m389 11 c0 -2 -18 -14 -40 -25
-23 -12 -59 -37 -80 -57 l-40 -35 -53 41 c-30 22 -69 47 -88 53 -30 12 -16 14
131 18 91 3 166 7 168 8 1 1 2 0 2 -3z m288 -26 c61 -30 103 -73 136 -136 23
-45 20 -49 -10 -13 -59 70 -189 100 -281 65 -86 -33 -133 -89 -170 -205 -3 -9
-13 5 -25 35 -11 27 -36 72 -55 99 l-36 50 29 24 c94 77 179 111 280 112 59 0
81 -5 132 -31z m118 -13 c29 -13 71 -41 94 -62 97 -88 124 -226 66 -332 -33
-59 -76 -96 -137 -117 -66 -24 -69 -18 -19 33 59 59 74 107 67 217 -7 117 -53
211 -126 261 -48 33 -14 32 55 0z m-818 -40 c108 -38 169 -108 235 -269 73
-175 131 -256 221 -307 59 -35 52 -38 -26 -11 -148 51 -233 144 -294 325 -59
173 -144 246 -285 246 -32 0 -72 -9 -99 -21 -56 -25 -35 0 25 30 49 25 163 28
223 7z m-509 -120 c-10 -24 -22 -72 -26 -106 -5 -55 -8 -61 -27 -58 -20 3 -21
9 -21 93 l0 90 35 12 c58 20 61 17 39 -31z m1574 22 c15 -8 17 -21 15 -96 -3
-85 -4 -87 -28 -87 -23 0 -25 3 -27 63 -2 39 -10 77 -24 103 l-20 41 33 -7
c18 -4 41 -12 51 -17z m-933 -211 c0 -7 14 -39 30 -71 34 -68 36 -65 -58 -111
-64 -32 -153 -49 -201 -39 l-36 7 44 8 c96 18 183 102 198 191 5 34 23 45 23
15z"/>
</g>
</svg>
